<?xml version="1.0" standalone="no"?><!DOCTYPE svg PUBLIC "-//W3C//DTD SVG 1.1//EN" "http://www.w3.org/Graphics/SVG/1.1/DTD/svg11.dtd"><svg t="1650788774225" class="icon" viewBox="0 0 1024 1024" version="1.1" xmlns="http://www.w3.org/2000/svg" p-id="785" width="16" height="16" xmlns:xlink="http://www.w3.org/1999/xlink"><defs><style type="text/css">@font-face { font-family: feedback-iconfont; src: url("//at.alicdn.com/t/font_1031158_u69w8yhxdu.woff2?t=1630033759944") format("woff2"), url("//at.alicdn.com/t/font_1031158_u69w8yhxdu.woff?t=1630033759944") format("woff"), url("//at.alicdn.com/t/font_1031158_u69w8yhxdu.ttf?t=1630033759944") format("truetype"); }
</style></defs><path d="M151.272727 279.272727A58.228364 58.228364 0 0 0 93.090909 337.454545v372.363637C93.090909 741.911273 119.179636 768 151.272727 768h512c32.093091 0 58.181818-26.088727 58.181818-58.181818v-372.363637c0-32.093091-26.088727-58.181818-58.181818-58.181818h-512zM791.272727 439.389091l106.728728-106.752a46.405818 46.405818 0 0 1 50.734545-10.100364A46.429091 46.429091 0 0 1 977.454545 365.544727v316.183273a46.429091 46.429091 0 0 1-46.592 46.568727c-12.101818 0-23.924364-4.724364-32.86109-13.661091L791.272727 607.906909V709.818182c0 70.562909-57.437091 128-128 128h-512A128.162909 128.162909 0 0 1 23.272727 709.818182v-372.363637C23.272727 266.891636 80.709818 209.454545 151.272727 209.454545h512c70.562909 0 128 57.437091 128 128v101.934546z m14.452364 84.247273l101.934545 101.911272v-203.822545L805.701818 523.636364z" fill="#515151" p-id="786"></path></svg>