<?xml version="1.0" standalone="no"?><!DOCTYPE svg PUBLIC "-//W3C//DTD SVG 1.1//EN" "http://www.w3.org/Graphics/SVG/1.1/DTD/svg11.dtd"><svg t="1642060721428" class="icon" viewBox="0 0 1024 1024" version="1.1" xmlns="http://www.w3.org/2000/svg" p-id="2362" xmlns:xlink="http://www.w3.org/1999/xlink" width="16" height="16"><defs><style type="text/css"></style></defs><path d="M512 638.976c104.448 0 189.44-88.064 189.44-196.608v-163.84c0-108.544-84.992-196.608-189.44-196.608S322.56 169.984 322.56 278.528v163.84c0 108.032 84.992 196.608 189.44 196.608zM361.984 278.528C361.984 192.512 429.056 122.88 512 122.88s150.016 69.632 150.016 155.648v163.84c0 85.504-67.072 155.648-150.016 155.648s-150.016-69.632-150.016-155.648v-163.84z" p-id="2363"></path><path d="M768 467.968h-39.424c0 126.976-97.28 230.4-216.576 230.4-119.296 0-216.576-103.424-216.576-230.4H256c0 145.92 109.056 265.216 245.248 271.36h-11.776v156.16H413.184v46.592h197.632v-46.592h-76.288v-156.16h-11.776c136.192-5.632 245.248-125.44 245.248-271.36z" p-id="2364"></path></svg>